<?xml version="1.0" encoding="UTF-8"?>
<!DOCTYPE svg
PUBLIC "-//W3C//DTD SVG 1.1//EN"
       "http://www.w3.org/Graphics/SVG/1.1/DTD/svg11.dtd">
<svg viewBox="83 -6 1556 728" width="1473px" height="734px" xmlns="http://www.w3.org/2000/svg" version="1.1">
   <line x1="259" y1="322" x2="269" y2="322" style="stroke:#0bf;stroke-width:1;"/>
   <line x1="216" y1="668" x2="226" y2="668" style="stroke:#0bf;stroke-width:1;"/>
   <line x1="269" y1="322" x2="216" y2="668" style="stroke:#0bf;stroke-width:1;"/>
   <line x1="266.5" y1="322" x2="262.96446609407" y2="325.53553390593" style="stroke:#0bf;stroke-width:2;"/>
   <line x1="266.5" y1="322" x2="262.96446609407" y2="318.46446609407" style="stroke:#0bf;stroke-width:2;"/>
   <line x1="221" y1="668" x2="217.46446609407" y2="671.53553390593" style="stroke:#0bf;stroke-width:2;"/>
   <line x1="221" y1="668" x2="217.46446609407" y2="664.46446609407" style="stroke:#0bf;stroke-width:2;"/>
   <line x1="259" y1="342" x2="269" y2="342" style="stroke:#bbb;stroke-width:1;"/>
   <line x1="1370" y1="211" x2="1380" y2="211" style="stroke:#bbb;stroke-width:1;"/>
   <line x1="269" y1="342" x2="1370" y2="211" style="stroke:#bbb;stroke-width:1;"/>
   <line x1="266.5" y1="342" x2="262.96446609407" y2="345.53553390593" style="stroke:#bbb;stroke-width:2;"/>
   <line x1="266.5" y1="342" x2="262.96446609407" y2="338.46446609407" style="stroke:#bbb;stroke-width:2;"/>
   <line x1="1375" y1="211" x2="1371.4644660941" y2="214.53553390593" style="stroke:#bbb;stroke-width:2;"/>
   <line x1="1375" y1="211" x2="1371.4644660941" y2="207.46446609407" style="stroke:#bbb;stroke-width:2;"/>
   <line x1="846" y1="59" x2="856" y2="59" style="stroke:#b0b;stroke-width:1;"/>
   <line x1="1370" y1="211" x2="1380" y2="211" style="stroke:#b0b;stroke-width:1;"/>
   <line x1="856" y1="59" x2="1370" y2="211" style="stroke:#b0b;stroke-width:1;"/>
   <line x1="853.5" y1="59" x2="849.96446609407" y2="62.535533905933" style="stroke:#b0b;stroke-width:2;"/>
   <line x1="853.5" y1="59" x2="849.96446609407" y2="55.464466094067" style="stroke:#b0b;stroke-width:2;"/>
   <line x1="1375" y1="211" x2="1371.4644660941" y2="214.53553390593" style="stroke:#b0b;stroke-width:2;"/>
   <line x1="1375" y1="211" x2="1371.4644660941" y2="207.46446609407" style="stroke:#b0b;stroke-width:2;"/>
   <line x1="685" y1="79" x2="675" y2="79" style="stroke:#0bf;stroke-width:1;"/>
   <line x1="397" y1="668" x2="387" y2="668" style="stroke:#0bf;stroke-width:1;"/>
   <line x1="675" y1="79" x2="397" y2="668" style="stroke:#0bf;stroke-width:1;"/>
   <line x1="677.5" y1="79" x2="681.03553390593" y2="82.535533905933" style="stroke:#0bf;stroke-width:2;"/>
   <line x1="677.5" y1="79" x2="681.03553390593" y2="75.464466094067" style="stroke:#0bf;stroke-width:2;"/>
   <line x1="392" y1="668" x2="395.53553390593" y2="671.53553390593" style="stroke:#0bf;stroke-width:2;"/>
   <line x1="392" y1="668" x2="395.53553390593" y2="664.46446609407" style="stroke:#0bf;stroke-width:2;"/>
   <line x1="387" y1="668" x2="397" y2="668" style="stroke:#333;stroke-width:1;"/>
   <line x1="573" y1="439" x2="583" y2="439" style="stroke:#333;stroke-width:1;"/>
   <line x1="397" y1="668" x2="573" y2="439" style="stroke:#333;stroke-width:1;"/>
   <line x1="394.5" y1="668" x2="390.96446609407" y2="671.53553390593" style="stroke:#333;stroke-width:2;"/>
   <line x1="394.5" y1="668" x2="390.96446609407" y2="664.46446609407" style="stroke:#333;stroke-width:2;"/>
   <line x1="578" y1="439" x2="574.46446609407" y2="442.53553390593" style="stroke:#333;stroke-width:2;"/>
   <line x1="578" y1="439" x2="574.46446609407" y2="435.46446609407" style="stroke:#333;stroke-width:2;"/>
   <line x1="285" y1="77" x2="295" y2="77" style="stroke:#0bf;stroke-width:1;"/>
   <line x1="1370" y1="211" x2="1380" y2="211" style="stroke:#0bf;stroke-width:1;"/>
   <line x1="295" y1="77" x2="1370" y2="211" style="stroke:#0bf;stroke-width:1;"/>
   <line x1="292.5" y1="77" x2="288.96446609407" y2="80.535533905933" style="stroke:#0bf;stroke-width:2;"/>
   <line x1="292.5" y1="77" x2="288.96446609407" y2="73.464466094067" style="stroke:#0bf;stroke-width:2;"/>
   <line x1="1375" y1="211" x2="1371.4644660941" y2="214.53553390593" style="stroke:#0bf;stroke-width:2;"/>
   <line x1="1375" y1="211" x2="1371.4644660941" y2="207.46446609407" style="stroke:#0bf;stroke-width:2;"/>
   <line x1="285" y1="97" x2="295" y2="97" style="stroke:#cb0;stroke-width:1;"/>
   <line x1="675" y1="39" x2="685" y2="39" style="stroke:#cb0;stroke-width:1;"/>
   <line x1="295" y1="97" x2="675" y2="39" style="stroke:#cb0;stroke-width:1;"/>
   <line x1="292.5" y1="97" x2="288.96446609407" y2="100.53553390593" style="stroke:#cb0;stroke-width:2;"/>
   <line x1="292.5" y1="97" x2="288.96446609407" y2="93.464466094067" style="stroke:#cb0;stroke-width:2;"/>
   <line x1="680" y1="39" x2="676.46446609407" y2="42.535533905933" style="stroke:#cb0;stroke-width:2;"/>
   <line x1="680" y1="39" x2="676.46446609407" y2="35.464466094067" style="stroke:#cb0;stroke-width:2;"/>
   <line x1="924" y1="703" x2="914" y2="703" style="stroke:#cb0;stroke-width:1;"/>
   <line x1="754" y1="439" x2="744" y2="439" style="stroke:#cb0;stroke-width:1;"/>
   <line x1="914" y1="703" x2="754" y2="439" style="stroke:#cb0;stroke-width:1;"/>
   <line x1="916.5" y1="703" x2="920.03553390593" y2="706.53553390593" style="stroke:#cb0;stroke-width:2;"/>
   <line x1="916.5" y1="703" x2="920.03553390593" y2="699.46446609407" style="stroke:#cb0;stroke-width:2;"/>
   <line x1="749" y1="439" x2="752.53553390593" y2="442.53553390593" style="stroke:#cb0;stroke-width:2;"/>
   <line x1="749" y1="439" x2="752.53553390593" y2="435.46446609407" style="stroke:#cb0;stroke-width:2;"/>
   <line x1="744" y1="459" x2="754" y2="459" style="stroke:#b0b;stroke-width:1;"/>
   <line x1="1370" y1="211" x2="1380" y2="211" style="stroke:#b0b;stroke-width:1;"/>
   <line x1="754" y1="459" x2="1370" y2="211" style="stroke:#b0b;stroke-width:1;"/>
   <line x1="751.5" y1="459" x2="747.96446609407" y2="462.53553390593" style="stroke:#b0b;stroke-width:2;"/>
   <line x1="751.5" y1="459" x2="747.96446609407" y2="455.46446609407" style="stroke:#b0b;stroke-width:2;"/>
   <line x1="1375" y1="211" x2="1371.4644660941" y2="214.53553390593" style="stroke:#b0b;stroke-width:2;"/>
   <line x1="1375" y1="211" x2="1371.4644660941" y2="207.46446609407" style="stroke:#b0b;stroke-width:2;"/>
   <rect width="161" height="20" x="98" y="272" style="fill:#007;stroke:black;"/>
   <text width="161" height="20" x="103" y="286" style="fill:#fff;" font-family="Arial" font-size="16px"> courses</text>
   <rect width="161" height="20" x="98" y="292" style="fill:none;stroke:black;"/>
   <text width="161" height="20" x="103" y="306" style="fill:black;" font-family="Arial" font-size="16px">course_id</text>
   <rect width="161" height="20" x="98" y="312" style="fill:none;stroke:black;"/>
   <text width="161" height="20" x="103" y="326" style="fill:black;" font-family="Arial" font-size="16px">studentID</text>
   <rect width="161" height="20" x="98" y="332" style="fill:none;stroke:black;"/>
   <text width="161" height="20" x="103" y="346" style="fill:black;" font-family="Arial" font-size="16px">staffID</text>
   <rect width="161" height="20" x="685" y="9" style="fill:#007;stroke:black;"/>
   <text width="161" height="20" x="690" y="23" style="fill:#fff;" font-family="Arial" font-size="16px"> courses_registered</text>
   <rect width="161" height="20" x="685" y="29" style="fill:#aea;stroke:black;"/>
   <text width="161" height="20" x="690" y="43" style="fill:black;" font-family="Arial" font-size="16px">course_id</text>
   <rect width="161" height="20" x="685" y="49" style="fill:none;stroke:black;"/>
   <text width="161" height="20" x="690" y="63" style="fill:black;" font-family="Arial" font-size="16px">staffID</text>
   <rect width="161" height="20" x="685" y="69" style="fill:none;stroke:black;"/>
   <text width="161" height="20" x="690" y="83" style="fill:black;" font-family="Arial" font-size="16px">studentID</text>
   <rect width="161" height="20" x="226" y="638" style="fill:#007;stroke:black;"/>
   <text width="161" height="20" x="231" y="652" style="fill:#fff;" font-family="Arial" font-size="16px"> faculties</text>
   <rect width="161" height="20" x="226" y="658" style="fill:#aea;stroke:black;"/>
   <text width="161" height="20" x="231" y="672" style="fill:black;" font-family="Arial" font-size="16px">student_id</text>
   <rect width="161" height="20" x="124" y="27" style="fill:#007;stroke:black;"/>
   <text width="161" height="20" x="129" y="41" style="fill:#fff;" font-family="Arial" font-size="16px"> files</text>
   <rect width="161" height="20" x="124" y="47" style="fill:#aea;stroke:black;"/>
   <text width="161" height="20" x="129" y="61" style="fill:black;" font-family="Arial" font-size="16px">id</text>
   <rect width="161" height="20" x="124" y="67" style="fill:none;stroke:black;"/>
   <text width="161" height="20" x="129" y="81" style="fill:black;" font-family="Arial" font-size="16px">staffID</text>
   <rect width="161" height="20" x="124" y="87" style="fill:none;stroke:black;"/>
   <text width="161" height="20" x="129" y="101" style="fill:black;" font-family="Arial" font-size="16px">courseID</text>
   <rect width="161" height="20" x="1380" y="181" style="fill:#007;stroke:black;"/>
   <text width="161" height="20" x="1385" y="195" style="fill:#fff;" font-family="Arial" font-size="16px"> staff</text>
   <rect width="161" height="20" x="1380" y="201" style="fill:#aea;stroke:black;"/>
   <text width="161" height="20" x="1385" y="215" style="fill:black;" font-family="Arial" font-size="16px">id</text>
   <rect width="161" height="20" x="1380" y="221" style="fill:none;stroke:black;"/>
   <text width="161" height="20" x="1385" y="235" style="fill:black;" font-family="Arial" font-size="16px">national_identification</text>
   <rect width="161" height="20" x="1380" y="241" style="fill:none;stroke:black;"/>
   <text width="161" height="20" x="1385" y="255" style="fill:black;" font-family="Arial" font-size="16px">token</text>
   <rect width="161" height="20" x="924" y="633" style="fill:#007;stroke:black;"/>
   <text width="161" height="20" x="929" y="647" style="fill:#fff;" font-family="Arial" font-size="16px"> std_login</text>
   <rect width="161" height="20" x="924" y="653" style="fill:#aea;stroke:black;"/>
   <text width="161" height="20" x="929" y="667" style="fill:black;" font-family="Arial" font-size="16px">id</text>
   <rect width="161" height="20" x="924" y="673" style="fill:none;stroke:black;"/>
   <text width="161" height="20" x="929" y="687" style="fill:black;" font-family="Arial" font-size="16px">username</text>
   <rect width="161" height="20" x="924" y="693" style="fill:none;stroke:black;"/>
   <text width="161" height="20" x="929" y="707" style="fill:black;" font-family="Arial" font-size="16px">studentID</text>
   <rect width="161" height="20" x="583" y="409" style="fill:#007;stroke:black;"/>
   <text width="161" height="20" x="588" y="423" style="fill:#fff;" font-family="Arial" font-size="16px"> students</text>
   <rect width="161" height="20" x="583" y="429" style="fill:#aea;stroke:black;"/>
   <text width="161" height="20" x="588" y="443" style="fill:black;" font-family="Arial" font-size="16px">id</text>
   <rect width="161" height="20" x="583" y="449" style="fill:none;stroke:black;"/>
   <text width="161" height="20" x="588" y="463" style="fill:black;" font-family="Arial" font-size="16px">GuideID</text>
   <rect width="161" height="20" x="1359" y="551" style="fill:#007;stroke:black;"/>
   <text width="161" height="20" x="1364" y="565" style="fill:#fff;" font-family="Arial" font-size="16px"> users</text>
   <rect width="161" height="20" x="1359" y="571" style="fill:#aea;stroke:black;"/>
   <text width="161" height="20" x="1364" y="585" style="fill:black;" font-family="Arial" font-size="16px">id</text>
</svg>
